<?xml version="1.0" standalone="no"?>
<!DOCTYPE svg PUBLIC "-//W3C//DTD SVG 20010904//EN"
 "http://www.w3.org/TR/2001/REC-SVG-20010904/DTD/svg10.dtd">
<svg version="1.0" xmlns="http://www.w3.org/2000/svg"
 width="313.052092pt" height="209.230151pt" viewBox="0 0 313.052092 209.230151"
 preserveAspectRatio="xMidYMid meet">
<metadata>
Created by potrace 1.12, written by Peter Selinger 2001-2015
</metadata>
<g transform="translate(-100.000000,376.507148) scale(0.100000,-0.100000)"
fill="#000000" stroke="none">
<path d="M2797 3749 c-42 -69 -187 -322 -186 -328 0 -3 66 -118 147 -256 l147
-250 208 -3 c114 -1 207 -1 207 2 0 2 -49 86 -108 187 -60 101 -171 290 -246
419 -76 129 -142 239 -146 244 -4 4 -15 -2 -23 -15z"/>
<path d="M2275 3719 c-14 -24 -127 -215 -250 -424 l-224 -380 231 -3 c127 -1
233 0 236 2 2 3 -16 40 -41 83 -48 81 -48 82 -8 133 15 19 23 22 31 14 7 -7
85 -137 174 -289 88 -153 165 -278 171 -279 5 -1 53 74 107 166 l98 167 -231
398 c-128 219 -240 411 -250 427 l-17 30 -27 -45z"/>
<path d="M1007 2463 c-4 -3 -7 -73 -7 -155 l0 -148 25 0 c24 0 24 1 27 98 l3
97 40 -77 c32 -63 44 -78 62 -78 18 0 31 15 62 78 l40 77 1 -97 0 -98 30 0 31
0 -3 153 -3 152 -30 0 c-28 0 -34 -7 -79 -94 l-49 -95 -45 90 c-24 49 -50 92
-56 96 -14 10 -41 10 -49 1z"/>
<path d="M1454 2456 c-66 -29 -103 -114 -83 -188 26 -98 125 -142 216 -97 56
29 83 74 83 139 0 63 -27 110 -80 138 -50 25 -91 27 -136 8z m106 -51 c38 -20
50 -43 50 -99 0 -64 -31 -99 -89 -99 -63 0 -96 36 -96 104 0 45 4 54 33 80 36
33 60 36 102 14z"/>
<path d="M1775 2461 c-54 -23 -76 -91 -40 -131 9 -10 38 -27 64 -36 25 -10 52
-22 59 -27 17 -13 12 -47 -9 -60 -23 -14 -70 0 -76 23 -8 29 -63 28 -63 0 0
-53 87 -92 154 -70 42 14 55 29 62 72 8 46 -23 82 -86 103 -28 9 -54 24 -59
34 -23 42 46 72 71 31 13 -21 68 -29 68 -9 0 53 -85 94 -145 70z"/>
<path d="M1967 2463 c-4 -3 -7 -14 -7 -24 0 -14 10 -19 43 -21 l42 -3 3 -127
3 -128 24 0 24 0 3 128 3 127 43 3 c37 3 42 6 42 28 0 24 0 24 -108 24 -60 0
-112 -3 -115 -7z"/>
<path d="M2320 2448 c-19 -45 -100 -272 -100 -280 0 -4 13 -8 29 -8 23 0 30 6
37 33 9 31 12 32 67 35 57 3 58 3 72 -32 13 -30 20 -36 45 -36 l29 0 -36 98
c-19 53 -42 117 -51 142 -19 58 -29 70 -58 70 -16 0 -28 -8 -34 -22z m54 -101
c32 -77 31 -77 -13 -77 -30 0 -41 4 -41 15 0 16 30 95 36 95 2 0 10 -15 18
-33z"/>
<path d="M2542 2458 c-8 -8 -12 -55 -12 -155 l0 -143 30 0 c29 0 29 1 32 63
l3 62 53 3 c44 3 52 6 52 23 0 16 -7 19 -56 19 l-55 0 3 43 3 42 68 3 c64 3
68 4 65 25 -3 20 -9 22 -88 25 -58 2 -89 -1 -98 -10z"/>
<path d="M2860 2448 c-19 -45 -100 -272 -100 -280 0 -4 13 -8 29 -8 23 0 30 6
37 33 9 31 12 32 66 35 57 3 57 3 72 -33 12 -29 20 -35 45 -35 l30 0 -36 98
c-19 53 -42 117 -51 142 -19 58 -29 70 -58 70 -16 0 -28 -8 -34 -22z m59 -117
c18 -54 15 -61 -24 -61 -40 0 -43 10 -19 70 18 45 25 43 43 -9z"/>
<path d="M3273 2458 c-6 -7 -19 -40 -31 -73 -11 -33 -34 -97 -51 -142 l-30
-83 29 0 c25 0 32 6 44 35 15 34 17 35 70 35 53 0 55 -1 67 -35 11 -29 18 -35
41 -35 16 0 28 5 27 13 0 6 -24 75 -52 152 -48 126 -55 140 -78 143 -14 2 -30
-3 -36 -10z m63 -162 c6 -27 5 -27 -32 -24 -43 3 -45 12 -17 78 l15 35 14 -31
c7 -17 16 -43 20 -58z"/>
<path d="M3487 2464 c-4 -4 -7 -74 -7 -156 l0 -148 30 0 30 0 0 65 0 65 61 0
c52 0 60 2 57 18 -2 13 -15 18 -61 20 l-57 3 0 44 0 45 71 0 c67 0 70 1 67 23
-3 21 -8 22 -93 25 -50 1 -94 0 -98 -4z"/>
<path d="M3727 2464 c-4 -4 -7 -74 -7 -156 l0 -148 30 0 31 0 -3 153 c-3 144
-4 152 -23 155 -12 2 -24 0 -28 -4z"/>
<path d="M3842 2458 c-8 -8 -12 -57 -12 -155 l0 -143 30 0 c29 0 29 1 32 63
l3 62 55 0 c48 0 55 3 55 20 0 17 -8 20 -58 23 l-58 3 3 42 3 42 65 3 c72 3
90 13 70 37 -16 19 -169 22 -188 3z"/>
<path d="M4077 2464 c-4 -4 -7 -74 -7 -156 l0 -148 30 0 31 0 -3 153 c-3 144
-4 152 -23 155 -12 2 -24 0 -28 -4z"/>
<path d="M3223 1839 c-23 -8 -39 -42 -28 -59 4 -6 24 -19 46 -31 22 -11 39
-25 36 -32 -6 -19 -47 -20 -68 -1 -17 15 -19 16 -19 1 0 -25 45 -50 72 -41 28
8 38 22 38 52 0 18 -9 27 -40 39 -27 11 -40 22 -40 35 0 21 21 23 50 6 23 -15
38 -4 21 16 -16 19 -42 25 -68 15z"/>
<path d="M1830 1761 c0 -66 3 -81 15 -81 13 0 15 13 13 77 -2 50 -7 78 -15 81
-10 3 -13 -17 -13 -77z"/>
<path d="M1880 1760 c0 -63 3 -80 14 -80 11 0 16 15 18 52 l3 52 38 -58 c21
-31 42 -54 47 -51 13 8 13 165 0 165 -5 0 -10 -25 -10 -55 0 -30 -3 -55 -8
-55 -4 0 -22 25 -40 55 -48 79 -62 74 -62 -25z"/>
<path d="M2040 1760 c0 -91 17 -109 22 -23 l3 57 38 -57 c53 -81 67 -76 67 23
0 63 -3 80 -15 80 -10 0 -15 -15 -17 -57 l-3 -58 -35 58 c-48 80 -60 75 -60
-23z"/>
<path d="M2211 1814 c-38 -48 -20 -116 35 -134 81 -27 138 64 83 134 -16 20
-29 26 -59 26 -30 0 -43 -6 -59 -26z m109 -26 c13 -25 13 -31 0 -55 -19 -33
-69 -43 -90 -18 -16 19 -16 71 1 91 20 24 71 14 89 -18z"/>
<path d="M2390 1764 c16 -42 31 -78 34 -81 14 -14 34 11 56 73 14 37 27 72 28
76 2 4 -2 8 -10 8 -7 0 -24 -29 -37 -67 l-24 -66 -25 66 c-13 37 -30 67 -37
67 -9 0 -5 -22 15 -76z"/>
<path d="M2546 1760 c-30 -84 -30 -110 -1 -66 23 35 67 36 83 0 7 -14 16 -23
21 -19 13 8 -44 159 -61 163 -10 2 -23 -23 -42 -78z m53 10 c9 -28 8 -30 -14
-30 -22 0 -23 2 -14 30 6 17 12 30 14 30 2 0 8 -13 14 -30z"/>
<path d="M2665 1830 c3 -5 15 -10 26 -10 17 0 19 -7 19 -70 0 -56 3 -70 15
-70 12 0 15 14 15 70 0 63 2 70 19 70 11 0 23 5 26 10 4 6 -18 10 -60 10 -42
0 -64 -4 -60 -10z"/>
<path d="M2810 1760 c0 -47 4 -80 10 -80 6 0 10 33 10 80 0 47 -4 80 -10 80
-6 0 -10 -33 -10 -80z"/>
<path d="M2888 1830 c-41 -24 -43 -107 -3 -140 27 -23 85 -18 106 9 26 32 25
95 -1 121 -21 21 -73 26 -102 10z m84 -27 c22 -20 24 -66 2 -87 -22 -23 -71
-20 -84 3 -34 65 30 132 82 84z"/>
<path d="M3040 1760 c0 -47 4 -80 10 -80 6 0 10 23 10 50 0 28 3 50 8 50 4 0
22 -23 40 -50 48 -74 62 -67 62 30 0 63 -3 80 -15 80 -10 0 -15 -15 -17 -57
l-3 -58 -35 58 c-48 80 -60 75 -60 -23z"/>
</g>
</svg>
